<svg width="190" height="225" viewBox="0 0 190 225" fill="none" xmlns="http://www.w3.org/2000/svg">
<path d="M170.988 0.468753C170.988 0.468753 -14.7337 101.132 0.938938 123.501C16.6116 145.871 231.408 244.292 231.408 212.98C231.408 181.668 202.306 -10.716 170.988 0.468753Z" fill="#E1E8EB" fill-opacity="0.05"/>
<path d="M31.6357 199.959C27.123 198.04 106.756 113.425 121.456 106.887C136.156 100.349 165.556 226.083 160.665 224.462C155.774 222.814 54.4962 209.738 31.6357 199.959Z" fill="white" fill-opacity="0.04"/>
<path d="M51.9297 38.2644C54.9291 34.266 91.6518 19.5421 108.513 12.9501C112.405 11.4371 116.512 14.49 116.188 18.6505L112.378 67.1449C112.053 71.2514 116.107 74.3043 119.971 72.8724L179.878 50.5299C183.796 49.071 187.877 52.2049 187.471 56.3654L183.067 101.321C182.607 106.13 187.985 109.263 191.93 106.481L248 87.6234" stroke="white" stroke-opacity="0.04" strokeWidth="2" strokeMiterlimit="10" strokeLinecap="round"/>
</svg>
